<svg id="Filled" height="512" viewBox="0 0 512 512" width="512" xmlns="http://www.w3.org/2000/svg"><circle cx="416" cy="432" fill="#f7b030" r="40"/><path d="m288 328 24-24 84.686 84.686a16 16 0 0 1 0 22.628l-1.372 1.372a16 16 0 0 1 -22.628 0z" fill="#e9eef2"/><path d="m96 352-8-32 104-32 8 32z" fill="#e9eef2"/><circle cx="64" cy="344" fill="#f7b030" r="40"/><circle cx="256" cy="272" fill="#3397e8" r="72"/><circle cx="464" cy="272" fill="#eb423f" r="24"/><path d="m256 240a16 16 0 0 1 -16-16v-112h32v112a16 16 0 0 1 -16 16z" fill="#e9eef2"/><circle cx="256" cy="80" fill="#f7b030" r="40"/><circle cx="112" cy="80" fill="#eb423f" r="24"/><path d="m464 240a32.057 32.057 0 0 0 -30.987 24h-97.434a79.983 79.983 0 0 0 -55.579-68.33v-74.128a47.988 47.988 0 1 0 -71.321-49.542h-65.692a32 32 0 1 0 0 16h65.692a48.109 48.109 0 0 0 23.321 33.542v74.128a80.056 80.056 0 0 0 -55.059 88.6l-80.2 24.678a47.974 47.974 0 1 0 13.841 46.633l87-29a79.784 79.784 0 0 0 94.48 16.8l74.971 74.97a24.388 24.388 0 0 0 2.377 2.08 47.97 47.97 0 1 0 34.995-35.011 24.067 24.067 0 0 0 -2.057-2.382l-74.972-74.971a79.344 79.344 0 0 0 8.224-28.067h97.414a32 32 0 1 0 30.986-40zm-352-144a16 16 0 1 1 16-16 16.019 16.019 0 0 1 -16 16zm144-48a32 32 0 1 1 -32 32 32.036 32.036 0 0 1 32-32zm0 80a48.061 48.061 0 0 0 8-.679v96.679a8 8 0 0 1 -16 0v-96.679a48.07 48.07 0 0 0 8 .679zm-192 248a32 32 0 1 1 32-32 32.036 32.036 0 0 1 -32 32zm47.657-37.648a47.639 47.639 0 0 0 -4.735-15.8l74.053-22.787a79.725 79.725 0 0 0 6.425 13.335zm80.343-66.352a64.558 64.558 0 0 1 40-59.327v11.327a24 24 0 0 0 48 0v-11.327a64 64 0 1 1 -88 59.327zm256 160a32 32 0 1 1 -63.3-6.647 23.815 23.815 0 0 0 16.268-7l1.383-1.383a23.883 23.883 0 0 0 6.981-16.263 32 32 0 0 1 38.668 31.293zm-56.967-37.654a8 8 0 0 1 0 11.305l-1.383 1.383a8 8 0 0 1 -11.3 0l-72.517-72.516a80.7 80.7 0 0 0 12.686-12.686zm72.967-106.346a16 16 0 1 1 16-16 16.019 16.019 0 0 1 -16 16z"/></svg>